<?xml version="1.0" encoding="UTF-8"?>
<svg version="1.1" xmlns="http://www.w3.org/2000/svg" width="500" height="500">
<path d="M0 0 C0 0.66 0 1.32 0 2 C0.90878906 2.23783203 0.90878906 2.23783203 1.8359375 2.48046875 C10.60534347 4.92241103 18.4599156 7.4940792 24 15 C25.37390245 16.09071032 26.77312714 17.1498072 28.1875 18.1875 C40.01186876 27.23992658 49.52855507 40.51641269 52.59765625 55.3203125 C55.25955776 79.66508164 51.29477523 100.82856067 35.91259766 120.43774414 C30.30813148 127.28493977 23.70389441 133.57026071 16 138 C15.34 138 14.68 138 14 138 C14 138.99 14 139.98 14 141 C4.13760407 145.8224942 -5.68800237 149.64586369 -16.65722656 150.74462891 C-37.82528054 153.0520262 -56.14923254 161.05164019 -70.125 177.53515625 C-78.25834177 188.22711178 -84.6699177 201.37231658 -85 215 C-85.03867188 215.91007813 -85.07734375 216.82015625 -85.1171875 217.7578125 C-85.5889487 237.8338723 -78.69305209 254.13771502 -65.1953125 268.8671875 C-49.62250017 283.99664574 -29.06179221 288.24299484 -8.04296875 288.00390625 C20.93101663 287.12039196 52.43582626 276.75555698 73.2734375 255.703125 C75 254 75 254 77 254 C77 253.34 77 252.68 77 252 C78.375 250.375 78.375 250.375 80 249 C80.66 249 81.32 249 82 249 C82 248.34 82 247.68 82 247 C82.66 247 83.32 247 84 247 C84.24363281 246.44441406 84.48726562 245.88882813 84.73828125 245.31640625 C86.25558378 242.53077034 88.12512684 240.34774333 90.1875 237.9375 C111.74837658 211.83024049 123.74125836 176.52769637 123.4375 142.8125 C123.43343643 141.74323776 123.43343643 141.74323776 123.42929077 140.65237427 C123.35928674 128.4336907 122.19643428 116.82033631 119 105 C118.71116943 103.90582764 118.71116943 103.90582764 118.41650391 102.78955078 C115.88548219 93.43301686 112.37629805 84.65606011 108 76 C107.18015625 74.36224609 107.18015625 74.36224609 106.34375 72.69140625 C102.50139923 65.27741578 98.1116527 58.59442219 93 52 C91.95585938 50.63101563 91.95585938 50.63101563 90.890625 49.234375 C86.96219537 44.1672246 86.96219537 44.1672246 82.26171875 39.83984375 C81.14216797 38.92912109 81.14216797 38.92912109 80 38 C80 37.34 80 36.68 80 36 C79.45859375 35.76410156 78.9171875 35.52820313 78.359375 35.28515625 C75.35885599 33.65076758 72.90426209 31.58987751 70.25 29.4375 C59.05013038 20.64377733 46.76303519 14.57776996 33.546875 9.41015625 C30.94023402 8.37381551 28.46952366 7.3175036 26 6 C30.08801264 4.27601487 33.37314588 5.90472494 37.25 7.4375 C37.95237793 7.71045898 38.65475586 7.98341797 39.37841797 8.26464844 C58.18212968 15.74592024 73.46632421 25.98927506 88 40 C88.96486328 40.88751953 88.96486328 40.88751953 89.94921875 41.79296875 C107.83820348 58.68117112 118.8897756 81.94670706 125.375 105.3125 C125.61371826 106.17045166 125.85243652 107.02840332 126.09838867 107.91235352 C129.28568417 120.07479648 130.41267702 132.26488334 130.4375 144.8125 C130.44159378 145.80307404 130.44159378 145.80307404 130.44577026 146.81365967 C130.45352428 159.42774451 128.60711575 171.38802145 125.57250977 183.62939453 C124.98175369 186.07555296 124.47873221 188.52970885 124 191 C125.485 186.545 125.485 186.545 127 182 C127.66 182 128.32 182 129 182 C123.51274265 203.85980571 113.81975844 228.29848454 98 245 C97.34 245 96.68 245 96 245 C95.73445313 245.58007812 95.46890625 246.16015625 95.1953125 246.7578125 C91.86011367 253.01403515 86.53809382 257.66841051 80.796875 261.67578125 C79.00345352 262.92097453 79.00345352 262.92097453 77.67578125 264.3671875 C73.06323033 268.86146788 67.29619991 272.35113831 62 276 C61.18273437 276.56332031 60.36546875 277.12664062 59.5234375 277.70703125 C47.67016369 285.30904254 33.96822591 289.93421222 20.5625 293.9375 C19.59296387 294.23197021 18.62342773 294.52644043 17.62451172 294.82983398 C5.92972478 298.18072165 -5.78350998 298.1813497 -17.875 298.1875 C-19.76412109 298.20586914 -19.76412109 298.20586914 -21.69140625 298.22460938 C-33.60771557 298.24297984 -45.15990033 297.53183744 -56.125 292.5625 C-56.91068359 292.21904541 -57.69636719 291.87559082 -58.50585938 291.52172852 C-71.17032062 285.84399525 -83.4958221 279.05403241 -94.90625 271.14453125 C-97.18727883 269.68023012 -97.18727883 269.68023012 -101 270 C-101.99 269.34 -102.98 268.68 -104 268 C-105.32 268 -106.64 268 -108 268 C-110.04563599 266.73779907 -112.04402816 265.39712274 -114 264 C-115.2065625 263.2884375 -115.2065625 263.2884375 -116.4375 262.5625 C-117.7059375 261.7890625 -117.7059375 261.7890625 -119 261 C-119.85464844 260.49726562 -119.85464844 260.49726562 -120.7265625 259.984375 C-125.04964374 257.22496144 -126.82052605 254.79029097 -128.86328125 250.14453125 C-130.16701211 247.6849153 -131.71567307 245.96115789 -133.625 243.9375 C-146.53938387 229.94090519 -155.30488624 212.03452691 -161 194 C-160.649375 195.2375 -160.29875 196.475 -159.9375 197.75 C-159.04406727 200.903292 -158.99118706 202.86774164 -160 206 C-163.04114157 198.83337539 -165.4791651 191.75873975 -167.25 184.1875 C-167.49411621 183.14928101 -167.49411621 183.14928101 -167.74316406 182.09008789 C-169.24031715 175.42680306 -170.14812877 168.85030168 -170.0625 162 C-170.05347656 161.05125 -170.04445313 160.1025 -170.03515625 159.125 C-170.02355469 158.42375 -170.01195312 157.7225 -170 157 C-169.34 157 -168.68 157 -168 157 C-167.67 157.66 -167.34 158.32 -167 159 C-166.67 151.08 -166.34 143.16 -166 135 C-166.99 135.33 -167.98 135.66 -169 136 C-168.88509088 133.31173136 -168.75836801 130.62486531 -168.625 127.9375 C-168.5940625 127.18533203 -168.563125 126.43316406 -168.53125 125.65820312 C-168.2802346 120.8261566 -167.41826683 116.65368804 -166 112 C-165.7683218 110.19033588 -165.55940686 108.37759039 -165.375 106.5625 C-164.04413117 98.23417237 -160.02736754 91.29803468 -156 84 C-155.66129883 83.37770508 -155.32259766 82.75541016 -154.97363281 82.11425781 C-150.41785518 73.77464136 -145.38660377 65.82203632 -140 58 C-141.485 57.505 -141.485 57.505 -143 57 C-131.89315752 42.77597829 -120.19003883 29.95095819 -105 20 C-104.505 21.485 -104.505 21.485 -104 23 C-103.401875 22.319375 -102.80375 21.63875 -102.1875 20.9375 C-98.08148812 16.80795797 -92.94884478 14.00059267 -88 11 C-87.20851563 10.49855469 -86.41703125 9.99710938 -85.6015625 9.48046875 C-82.46148459 7.69354753 -79.22155511 6.28091384 -75.875 4.9375 C-74.88910889 4.54062988 -74.88910889 4.54062988 -73.88330078 4.13574219 C-69.10592608 2.27961654 -64.46402675 1.08875116 -59.3671875 0.421875 C-56.71653676 -0.0505182 -54.4960839 -1.00080077 -52 -2 C-33.70638941 -6.00991751 -17.77040347 -5.67140536 0 0 Z M-13 30 C-13.75071695 32.20615306 -13.75071695 32.20615306 -14.09765625 34.796875 C-14.25943359 35.7559375 -14.42121094 36.715 -14.58789062 37.703125 C-14.74451172 38.70859375 -14.90113281 39.7140625 -15.0625 40.75 C-16.02664276 46.69748305 -17.03454672 52.29121453 -19 58 C-19.37531446 60.32694964 -19.71917202 62.65976685 -20 65 C-21.42892578 65.19916016 -21.42892578 65.19916016 -22.88671875 65.40234375 C-24.14097656 65.57894531 -25.39523438 65.75554687 -26.6875 65.9375 C-27.92886719 66.11152344 -29.17023438 66.28554687 -30.44921875 66.46484375 C-33.32474548 66.89822897 -36.15644813 67.39649282 -39 68 C-38.50455821 62.3519636 -37.5887057 56.97953517 -36.375 51.4375 C-35.0031001 44.75868976 -34.8537367 40.2411742 -36.625 33.6875 C-38.85548538 30.95008613 -41.72196869 30.21408567 -45 29 C-47.87076489 33.49337113 -49.15004425 36.8400194 -49.0625 42.16015625 C-49.05404053 42.9490625 -49.04558105 43.73796875 -49.03686523 44.55078125 C-49.02469971 45.37964844 -49.01253418 46.20851563 -49 47.0625 C-48.86836391 64.60509173 -48.86836391 64.60509173 -51 71 C-54.08984375 72.09765625 -54.08984375 72.09765625 -57.9375 73.0625 C-62.96712206 74.13583512 -62.96712206 74.13583512 -67 77 C-66.67801034 80.09926819 -66.67801034 80.09926819 -66 83 C-63.36 83 -60.72 83 -58 83 C-58 82.34 -58 81.68 -58 81 C-55.36 80.34 -52.72 79.68 -50 79 C-50.01571045 79.94842773 -50.0314209 80.89685547 -50.04760742 81.87402344 C-50.09880107 85.4001209 -50.13638125 88.92582222 -50.16479492 92.45214844 C-50.17986151 93.9769515 -50.20031876 95.50171136 -50.22631836 97.02636719 C-50.26279706 99.22081166 -50.27974714 101.41468216 -50.29296875 103.609375 C-50.3086792 104.92905273 -50.32438965 106.24873047 -50.34057617 107.60839844 C-49.9866721 111.13272487 -49.41890223 112.48902883 -47 115 C-44.03 114.505 -44.03 114.505 -41 114 C-40.77692458 111.7722603 -40.57211822 109.54268636 -40.375 107.3125 C-40.25898438 106.07113281 -40.14296875 104.82976562 -40.0234375 103.55078125 C-40.00024289 100.03679795 -40.603293 98.15110725 -42 95 C-41.67 94.34 -41.34 93.68 -41 93 C-40.960008 91.00039988 -40.95653201 88.99952758 -41 87 C-41.66 87 -42.32 87 -43 87 C-42.67 85.68 -42.34 84.36 -42 83 C-41.34 83 -40.68 83 -40 83 C-40 80.36 -40 77.72 -40 75 C-37.03 74.34 -34.06 73.68 -31 73 C-31 72.01 -31 71.02 -31 70 C-29.68 70.66 -28.36 71.32 -27 72 C-27 71.01 -27 70.02 -27 69 C-25.68 69 -24.36 69 -23 69 C-22.67 69.66 -22.34 70.32 -22 71 C-21.34 70.67 -20.68 70.34 -20 70 C-20.08161377 70.71687988 -20.16322754 71.43375977 -20.24731445 72.17236328 C-21.01993585 79.8687415 -20.87218083 87.18049167 -20.1875 94.875 C-20.0627832 96.50695312 -20.0627832 96.50695312 -19.93554688 98.171875 C-19.45527357 107.34879654 -19.45527357 107.34879654 -15 115 C-12.89179203 114.6814823 -12.89179203 114.6814823 -11 114 C-11.33 113.01 -11.66 112.02 -12 111 C-12 111.66 -12 112.32 -12 113 C-12.66 113 -13.32 113 -14 113 C-14.13277344 111.84242188 -14.26554687 110.68484375 -14.40234375 109.4921875 C-14.58065082 107.95311592 -14.75904062 106.41405393 -14.9375 104.875 C-15.06801758 103.73417969 -15.06801758 103.73417969 -15.20117188 102.5703125 C-15.58808459 99.24572913 -16.00817587 95.95094478 -16.55859375 92.6484375 C-17.1735615 88.95863098 -17.70609246 85.41218492 -16 82 C-15.76970044 79.62876754 -15.58880058 77.25258057 -15.4375 74.875 C-15.35371094 73.59367187 -15.26992187 72.31234375 -15.18359375 70.9921875 C-15.09271484 69.51105469 -15.09271484 69.51105469 -15 68 C-12.03 67.01 -9.06 66.02 -6 65 C-6 64.67 -6 64.34 -6 64 C-9.3 63.34 -12.6 62.68 -16 62 C-15.34 60.35 -14.68 58.7 -14 57 C-13.01 57.33 -12.02 57.66 -11 58 C-10.8453125 56.4221875 -10.8453125 56.4221875 -10.6875 54.8125 C-10.00060356 51.00334699 -8.97284865 49.23547178 -7 46 C-5.03124196 39.8864882 -4.76410771 34.39530205 -5 28 C-8.71599191 27.79913557 -9.77208445 27.8480563 -13 30 Z M-124 38 C-123.67 38.66 -123.34 39.32 -123 40 C-122.67 39.34 -122.34 38.68 -122 38 C-122.66 38 -123.32 38 -124 38 Z M40 38 C41 40 41 40 41 40 Z M41 40 C41.33 40.99 41.66 41.98 42 43 C42 42.01 42 41.02 42 40 C41.67 40 41.34 40 41 40 Z M43 43 C44 45 44 45 44 45 Z M44 46 C44.14074951 46.65049316 44.28149902 47.30098633 44.42651367 47.97119141 C48.86248954 70.03572366 46.95164132 90.86946637 35 110 C32.84909434 113.19362732 30.55758325 116.12413973 28 119 C27.41992188 119.67289062 26.83984375 120.34578125 26.2421875 121.0390625 C13.16225196 135.21355332 -4.31768317 140.04256576 -22.484375 143.8203125 C-33.43881676 146.12007867 -43.12180141 149.66043319 -53 155 C-49.46266565 156.17911145 -49.07146405 155.83104673 -45.875 154.25 C-37.92095986 150.34581912 -29.88804261 148.47464579 -21.1875 147.0625 C2.17719659 142.9942712 20.89439412 133.0017167 35.71484375 114.27734375 C45.85788922 99.73030931 52.80540478 80.77768348 49.62207031 62.87451172 C48.27599743 53.70317187 48.27599743 53.70317187 44 46 Z M-135 50 C-135 53 -135 53 -135 53 Z M-139 55 C-139 58 -139 58 -139 58 Z M-6 63 C-2 64 -2 64 -2 64 Z M-14 77 C-13 80 -13 80 -13 80 Z M-164 120 C-163 123 -163 123 -163 123 Z M-165 124 C-164 126 -164 126 -164 126 Z M-160 149 C-160 151.64 -160 154.28 -160 157 C-159.67 157 -159.34 157 -159 157 C-159 154.36 -159 151.72 -159 149 C-159.33 149 -159.66 149 -160 149 Z M-55 156 C-55.33 156.66 -55.66 157.32 -56 158 C-55.01 157.67 -54.02 157.34 -53 157 C-53.66 156.67 -54.32 156.34 -55 156 Z M-160 160 C-160 161.98 -160 163.96 -160 166 C-159.67 166 -159.34 166 -159 166 C-159 164.02 -159 162.04 -159 160 C-159.33 160 -159.66 160 -160 160 Z M-159 167 C-159 169.31 -159 171.62 -159 174 C-158.67 174 -158.34 174 -158 174 C-158 171.69 -158 169.38 -158 167 C-158.33 167 -158.66 167 -159 167 Z M-70 168 C-69.67 168.66 -69.34 169.32 -69 170 C-68.67 169.34 -68.34 168.68 -68 168 C-68.66 168 -69.32 168 -70 168 Z M-166 171 C-166 172.98 -166 174.96 -166 177 C-165.67 177 -165.34 177 -165 177 C-165 175.02 -165 173.04 -165 171 C-165.33 171 -165.66 171 -166 171 Z M-158 174 C-158 175.98 -158 177.96 -158 180 C-157.67 180 -157.34 180 -157 180 C-157 178.02 -157 176.04 -157 174 C-157.33 174 -157.66 174 -158 174 Z M-81 174 C-89.251116 184.40091049 -95.18723985 194.77809617 -95.0625 208.25 C-95.05347656 209.51328125 -95.04445313 210.7765625 -95.03515625 212.078125 C-95.02355469 213.04234375 -95.01195312 214.0065625 -95 215 C-94.67 215 -94.34 215 -94 215 C-93.91363281 214.21238281 -93.82726562 213.42476562 -93.73828125 212.61328125 C-92.10887266 199.98162753 -87.56460455 189.49357314 -81.2578125 178.58203125 C-80.84273437 177.72996094 -80.42765625 176.87789062 -80 176 C-80.33 175.34 -80.66 174.68 -81 174 Z M-165 180 C-164 184 -164 184 -164 184 Z M-157 180 C-156 184 -156 184 -156 184 Z M-156 184 C-155 188 -155 188 -155 188 Z M-82 185 C-81 187 -81 187 -81 187 Z M-164 186 C-163 188 -163 188 -163 188 Z M-83 187 C-82 189 -82 189 -82 189 Z M-155 188 C-154 192 -154 192 -154 192 Z M-163 189 C-162 191 -162 191 -162 191 Z M-154 192 C-153.5020163 195.73487777 -153.12508244 197.81237635 -151 201 C-151.4979837 197.26512223 -151.87491756 195.18762365 -154 192 Z M121 196 C122 198 122 198 122 198 Z M120 198 C121 201 121 201 121 201 Z M-151 201 C-149.87922014 207.48817561 -147.92795947 212.81212632 -144.75 218.5625 C-144.35176025 219.29976318 -143.95352051 220.03702637 -143.54321289 220.79663086 C-140.74838357 225.88095551 -137.71192017 230.5266603 -134 235 C-134 230.96853383 -135.95937388 228.59823889 -138.0625 225.3125 C-142.90168304 217.54263911 -146.54305448 209.45895672 -150 201 C-150.33 201 -150.66 201 -151 201 Z M-90 204 C-90 206.31 -90 208.62 -90 211 C-89.67 211 -89.34 211 -89 211 C-88.67 209.02 -88.34 207.04 -88 205 C-88.66 204.67 -89.32 204.34 -90 204 Z M-92 211 C-92 213.31 -92 215.62 -92 218 C-92.99 217.67 -93.98 217.34 -95 217 C-95.33 219.31 -95.66 221.62 -96 224 C-96.66 223.67 -97.32 223.34 -98 223 C-97.43586248 225.44459592 -96.74310442 227.69932686 -95.875 230.0625 C-95 233 -95 233 -96 236 C-95.26726732 238.76842954 -94.46289867 241.37497638 -93.5 244.0625 C-93.22953857 244.82385254 -92.95907715 245.58520508 -92.68041992 246.36962891 C-90.11451976 253.2573917 -86.72296038 259.44505921 -81.35546875 264.5703125 C-80 266 -80 266 -79 269 C-76.98172967 270.27858884 -76.98172967 270.27858884 -74.5625 271.25 C-73.75941406 271.60578125 -72.95632812 271.9615625 -72.12890625 272.328125 C-69.97738917 273.27855669 -69.97738917 273.27855669 -68 272 C-68.50789063 271.45472656 -69.01578125 270.90945313 -69.5390625 270.34765625 C-76.42438174 262.80475034 -81.75181471 255.70695923 -85.04296875 245.96875 C-85.35878906 245.3190625 -85.67460937 244.669375 -86 244 C-86.99 243.67 -87.98 243.34 -89 243 C-89.90816798 239.13792926 -90.11643845 235.56851344 -90.09765625 231.60546875 C-90.09443359 230.40341797 -90.09121094 229.20136719 -90.08789062 227.96289062 C-90.07951172 226.71701172 -90.07113281 225.47113281 -90.0625 224.1875 C-90.05798828 222.92228516 -90.05347656 221.65707031 -90.04882812 220.35351562 C-90.03706251 217.2356289 -90.02062272 214.11783867 -90 211 C-90.66 211 -91.32 211 -92 211 Z M114 213 C115 215 115 215 115 215 Z M-133 235 C-132.34 236.32 -131.68 237.64 -131 239 C-131 238.01 -131 237.02 -131 236 C-131.66 235.67 -132.32 235.34 -133 235 Z M-89 237 C-88 239 -88 239 -88 239 Z M-130 239 C-128.6910428 242.12197478 -128.6910428 242.12197478 -126 244 C-127.3089572 240.87802522 -127.3089572 240.87802522 -130 239 Z M-115 255 C-115.33 255.99 -115.66 256.98 -116 258 C-113.36 259.98 -110.72 261.96 -108 264 C-107.67 263.01 -107.34 262.02 -107 261 C-109.64 259.02 -112.28 257.04 -115 255 Z M-65 276 C-62.78071806 278.90802461 -61.07030857 280.95312762 -58 283 C-57.01 282.67 -56.02 282.34 -55 282 C-56.28716647 280.99421411 -57.57988658 279.99553202 -58.875 279 C-59.59429687 278.443125 -60.31359375 277.88625 -61.0546875 277.3125 C-62.8852085 275.81356623 -62.8852085 275.81356623 -65 276 Z M-42 289 C-41.34 289.66 -40.68 290.32 -40 291 C-37.89179203 290.6814823 -37.89179203 290.6814823 -36 290 C-38.97 289.505 -38.97 289.505 -42 289 Z M-36 291 C-32 292 -32 292 -32 292 Z M-27 292 C-23 293 -23 293 -23 293 Z M-23 293 C-23 293.33 -23 293.66 -23 294 C-17.72 294 -12.44 294 -7 294 C-7 293.67 -7 293.34 -7 293 C-12.28 293 -17.56 293 -23 293 Z " fill="#010101" transform="translate(270,103)"/>
<path d="M0 0 C1.32 0.33 2.64 0.66 4 1 C3.80436626 8.55857632 1.79572064 15.1426135 -0.74609375 22.19140625 C-3.43406968 30.03339108 -4.34497184 37.61416924 -4.625 45.875 C-4.66367187 46.81085938 -4.70234375 47.74671875 -4.7421875 48.7109375 C-4.90882337 52.8530291 -5.06710938 56.97553377 -4.9296875 61.12109375 C-4.91164063 61.88550781 -4.89359375 62.64992188 -4.875 63.4375 C-4.85179687 64.19933594 -4.82859375 64.96117187 -4.8046875 65.74609375 C-5.02186957 68.25237485 -5.74922103 69.8382206 -7 72 C-6.34 72 -5.68 72 -5 72 C-3.08372425 88.97570365 -3.08372425 88.97570365 -6.6953125 95.4765625 C-8 97 -8 97 -10.9375 98.3125 C-15.0489628 97.89296298 -16.16658334 97.04592291 -19 94 C-23.13020502 88.18901676 -25.54528985 82.9378484 -27 76 C-27.47534838 74.63698449 -27.97592742 73.28253357 -28.5 71.9375 C-30.53386035 66.67217624 -32.34665294 61.71977357 -32 56 C-32.66 56 -33.32 56 -34 56 C-36.28571429 47.57142857 -36.28571429 47.57142857 -36 43 C-36.66 43 -37.32 43 -38 43 C-38.33 46.3 -38.66 49.6 -39 53 C-39.66 53 -40.32 53 -41 53 C-40.814375 53.763125 -40.62875 54.52625 -40.4375 55.3125 C-40 58 -40 58 -41 61 C-41.02550249 64.71607774 -40.97351511 68.41853233 -40.87304688 72.1328125 C-40.80185086 77.17516536 -41.3705692 81.22033633 -43 86 C-42.34 86 -41.68 86 -41 86 C-40.91773332 89.04386724 -41.02391783 91.07175348 -42 94 C-42 95.32 -42 96.64 -42 98 C-43.625 99.1875 -43.625 99.1875 -46 100 C-49.125 99.1875 -49.125 99.1875 -52 97 C-54.20578056 91.13990131 -54.42667878 84.57208781 -54.6875 78.375 C-54.72657471 77.49384521 -54.76564941 76.61269043 -54.8059082 75.70483398 C-55.05990275 68.90754439 -54.80313412 62.26450172 -54.19580078 55.48828125 C-53.94464868 52.29658269 -53.76904598 49.10278534 -53.58984375 45.90625 C-53.47539917 43.97640259 -53.47539917 43.97640259 -53.35864258 42.00756836 C-53.20556989 39.42292725 -53.06057473 36.83779217 -52.92456055 34.25219727 C-51.97612379 19.13276188 -51.97612379 19.13276188 -46.625 13.5 C-43.6449547 11.79711697 -42.36021459 11.32795708 -39 12 C-31.09699083 16.81890803 -29.17731727 24.94262311 -26.8671875 33.359375 C-26.06717912 36.71796874 -25.48915471 40.02199868 -25 43.4375 C-24.47407307 47.05205234 -23.87995829 49.63099016 -21.875 52.6875 C-19.69829071 56.53301975 -19.84029599 58.5291048 -20.05078125 62.796875 C-19.97069132 66.27154583 -18.5336299 68.9327402 -17 72 C-16.32723284 73.6642135 -15.65793165 75.32986582 -15 77 C-13.64477227 70.66509828 -13.97470652 64.39876983 -14.12695312 57.96289062 C-14.20052137 51.97789748 -13.50710326 46.79791488 -12 41 C-12.66 41 -13.32 41 -14 41 C-13.26815212 37.29684971 -12.53205051 33.59467757 -11.78515625 29.89453125 C-11.348117 27.7267296 -10.91479759 25.55813635 -10.49609375 23.38671875 C-8.71731417 14.62102118 -6.33597904 6.51197846 0 0 Z M-38 38 C-37 41 -37 41 -37 41 Z M-23 57 C-22 59 -22 59 -22 59 Z " fill="#020202" transform="translate(290,267)"/>
<path d="M0 0 C4.58364388 0.85576983 7.02465129 3.58097665 10.1875 6.8125 C11.00637695 7.61397461 11.00637695 7.61397461 11.84179688 8.43164062 C14.64927162 11.25998879 16.10481764 13.1822963 17 17 C18.80775574 18.87981817 18.80775574 18.87981817 21 20.5625 C24.89520715 23.68562145 24.89520715 23.68562145 26 27 C21.6193696 25.37839822 18.10345651 23.20839759 14.27734375 20.56640625 C12.87584467 19.60242489 11.45444043 18.66583142 10.00390625 17.77734375 C5.12203753 14.68024424 3.20525559 11.2570785 1 6 C0.61457031 5.30003906 0.22914063 4.60007812 -0.16796875 3.87890625 C-0.44253906 3.25886719 -0.71710938 2.63882812 -1 2 C-0.67 1.34 -0.34 0.68 0 0 Z " fill="#0A0A0A" transform="translate(139,345)"/>
<path d="M0 0 C0 0.66 0 1.32 0 2 C-0.60360352 2.235979 -1.20720703 2.47195801 -1.82910156 2.71508789 C-17.33154288 8.75441177 -17.33154288 8.75441177 -31.85546875 16.78515625 C-34 18 -34 18 -37 18 C-37 17.34 -37 16.68 -37 16 C-34.98828125 14.59765625 -34.98828125 14.59765625 -32.3125 13.0625 C-31.44238281 12.55847656 -30.57226562 12.05445312 -29.67578125 11.53515625 C-28.79277344 11.02855469 -27.90976563 10.52195312 -27 10 C-25.83404297 9.25943359 -25.83404297 9.25943359 -24.64453125 8.50390625 C-21.34513432 6.62758746 -17.9040269 5.2466335 -14.375 3.875 C-13.70726562 3.61074219 -13.03953125 3.34648438 -12.3515625 3.07421875 C-4.54897684 0 -4.54897684 0 0 0 Z " fill="#1A1A1A" transform="translate(209,104)"/>
<path d="M0 0 C6.55258692 4.07127643 12.92133531 8.24505598 19 13 C17 14 17 14 14 14 C11.37109375 12.828125 11.37109375 12.828125 8.4375 11.25 C7.46683594 10.73953125 6.49617187 10.2290625 5.49609375 9.703125 C1.72686689 7.13132076 0.92840721 4.33256698 0 0 Z " fill="#040404" transform="translate(160,371)"/>
<path d="M0 0 C4.08073706 0.65655423 7.29987559 2.79538979 10.75 4.9375 C11.35199219 5.29779297 11.95398438 5.65808594 12.57421875 6.02929688 C14.08725394 6.96079133 15.54894869 7.97461836 17 9 C17 9.66 17 10.32 17 11 C10.81179262 9.53437194 5.90348952 5.91540406 1 2 C0.67 1.34 0.34 0.68 0 0 Z " fill="#040404" transform="translate(175,377)"/>
<path d="M0 0 C4.25227508 1.41742503 5.85663896 4.16533225 8 8 C8.8125 11.4375 8.8125 11.4375 9 14 C5.41292671 10.61220856 2.50310461 7.26454859 0 3 C0 2.01 0 1.02 0 0 Z " fill="#0F0F0F" transform="translate(129,330)"/>
<path d="M0 0 C4.24875288 0.62425455 8.22422463 1.56145698 12.3125 2.875 C13.88451172 3.36613281 13.88451172 3.36613281 15.48828125 3.8671875 C16.31714844 4.24101563 17.14601563 4.61484375 18 5 C18.33 5.99 18.66 6.98 19 8 C14.87457432 7.3098442 11.1548707 6.05112152 7.25 4.5625 C6.10015625 4.13066406 4.9503125 3.69882813 3.765625 3.25390625 C1 2 1 2 0 0 Z " fill="#0C0C0C" transform="translate(296,108)"/>
<path d="M0 0 C0 0.66 0 1.32 0 2 C-1.4096347 2.70180531 -2.82807641 3.38593958 -4.25 4.0625 C-5.03890625 4.44535156 -5.8278125 4.82820313 -6.640625 5.22265625 C-9.25993522 6.08564091 -10.44855176 5.93045933 -13 5 C-9.5464929 0.77904688 -5.26785261 0 0 0 Z " fill="#2C2C2D" transform="translate(209,104)"/>
<path d="M0 0 C0.66 0.33 1.32 0.66 2 1 C-0.31 3.97 -2.62 6.94 -5 10 C-5.99 9.67 -6.98 9.34 -8 9 C-7.23587913 7.87043002 -6.46340197 6.74651022 -5.6875 5.625 C-5.25824219 4.99851563 -4.82898438 4.37203125 -4.38671875 3.7265625 C-3 2 -3 2 0 0 Z " fill="#080808" transform="translate(135,151)"/>
<path d="M0 0 C-2.12669835 2.33936818 -4.06224856 3.80653848 -7 5 C-7.99 5 -8.98 5 -10 5 C-10 4.34 -10 3.68 -10 3 C-6.58168085 0.4606772 -4.24223102 -0.3636198 0 0 Z " fill="#333333" transform="translate(182,117)"/>
<path d="M0 0 C1.32 0.66 2.64 1.32 4 2 C3.34 3.98 2.68 5.96 2 8 C1.01 7.67 0.02 7.34 -1 7 C-0.67 4.69 -0.34 2.38 0 0 Z " fill="#080808" transform="translate(386,309)"/>
<path d="M0 0 C2.4375 0.625 2.4375 0.625 5 2 C5.8125 5.125 5.8125 5.125 6 8 C1.125 3.375 1.125 3.375 0 0 Z " fill="#191919" transform="translate(132,336)"/>
<path d="M0 0 C0 0.66 0 1.32 0 2 C-4.43076923 4.09230769 -4.43076923 4.09230769 -7.3125 3.625 C-7.869375 3.41875 -8.42625 3.2125 -9 3 C-3.375 0 -3.375 0 0 0 Z " fill="#191919" transform="translate(233,245)"/>
<path d="M0 0 C0.66 0 1.32 0 2 0 C4.42857143 6.28571429 4.42857143 6.28571429 3 10 C0 3.375 0 3.375 0 0 Z " fill="#070707" transform="translate(107,299)"/>
<path d="M0 0 C0.66 0.33 1.32 0.66 2 1 C-0.75 5.875 -0.75 5.875 -3 7 C-1.125 1.125 -1.125 1.125 0 0 Z " fill="#090909" transform="translate(122,168)"/>
</svg>
